<mxfile host="65bd71144e">
    <diagram name="Page-1" id="1Ryli8fB0829bHw35d7t">
        <mxGraphModel dx="2200" dy="1366" grid="1" gridSize="10" guides="1" tooltips="1" connect="1" arrows="1" fold="1" page="0" pageScale="1" pageWidth="827" pageHeight="1169" math="0" shadow="0">
            <root>
                <mxCell id="0"/>
                <mxCell id="1" parent="0"/>
                <mxCell id="tuJECXELKrIchDs7tuP_-1" value="CLI&lt;br&gt;Commands" style="whiteSpace=wrap;html=1;aspect=fixed;" parent="1" vertex="1">
                    <mxGeometry x="80" y="-240" width="80" height="80" as="geometry"/>
                </mxCell>
                <mxCell id="tuJECXELKrIchDs7tuP_-2" value="" style="endArrow=none;dashed=1;html=1;rounded=0;entryX=0.5;entryY=1;entryDx=0;entryDy=0;dashPattern=8 8;startArrow=none;" parent="1" source="407" target="tuJECXELKrIchDs7tuP_-1" edge="1">
                    <mxGeometry width="50" height="50" relative="1" as="geometry">
                        <mxPoint x="120" y="220" as="sourcePoint"/>
                        <mxPoint x="460" y="90" as="targetPoint"/>
                    </mxGeometry>
                </mxCell>
                <mxCell id="tuJECXELKrIchDs7tuP_-4" value="Data&lt;br&gt;Keeper&lt;br&gt;(Client)" style="whiteSpace=wrap;html=1;aspect=fixed;" parent="1" vertex="1">
                    <mxGeometry x="440" y="-240" width="80" height="80" as="geometry"/>
                </mxCell>
                <mxCell id="tuJECXELKrIchDs7tuP_-8" value="gRPC&lt;br&gt;Client" style="whiteSpace=wrap;html=1;aspect=fixed;" parent="1" vertex="1">
                    <mxGeometry x="680" y="-240" width="80" height="80" as="geometry"/>
                </mxCell>
                <mxCell id="tuJECXELKrIchDs7tuP_-9" value="gRPC&lt;br&gt;Server" style="whiteSpace=wrap;html=1;aspect=fixed;" parent="1" vertex="1">
                    <mxGeometry x="800" y="-240" width="80" height="80" as="geometry"/>
                </mxCell>
                <mxCell id="tuJECXELKrIchDs7tuP_-10" value="Access Manager&lt;br&gt;(Server)" style="whiteSpace=wrap;html=1;aspect=fixed;" parent="1" vertex="1">
                    <mxGeometry x="920" y="-240" width="80" height="80" as="geometry"/>
                </mxCell>
                <mxCell id="tuJECXELKrIchDs7tuP_-12" value="DB&lt;br&gt;Connector" style="whiteSpace=wrap;html=1;aspect=fixed;" parent="1" vertex="1">
                    <mxGeometry x="1040" y="-240" width="80" height="80" as="geometry"/>
                </mxCell>
                <mxCell id="tuJECXELKrIchDs7tuP_-13" value="" style="endArrow=none;dashed=1;html=1;rounded=0;entryX=0.5;entryY=1;entryDx=0;entryDy=0;dashPattern=8 8;startArrow=none;" parent="1" source="416" target="tuJECXELKrIchDs7tuP_-4" edge="1">
                    <mxGeometry width="50" height="50" relative="1" as="geometry">
                        <mxPoint x="479" y="1460" as="sourcePoint"/>
                        <mxPoint x="530" y="-60" as="targetPoint"/>
                    </mxGeometry>
                </mxCell>
                <mxCell id="tuJECXELKrIchDs7tuP_-15" value="" style="endArrow=none;dashed=1;html=1;rounded=0;entryX=0.5;entryY=1;entryDx=0;entryDy=0;dashPattern=8 8;startArrow=none;" parent="1" target="tuJECXELKrIchDs7tuP_-8" edge="1">
                    <mxGeometry width="50" height="50" relative="1" as="geometry">
                        <mxPoint x="720.0000000000002" y="120" as="sourcePoint"/>
                        <mxPoint x="910" y="300" as="targetPoint"/>
                    </mxGeometry>
                </mxCell>
                <mxCell id="tuJECXELKrIchDs7tuP_-16" value="" style="endArrow=none;dashed=1;html=1;rounded=0;entryX=0.5;entryY=1;entryDx=0;entryDy=0;dashPattern=8 8;startArrow=none;" parent="1" source="547" target="tuJECXELKrIchDs7tuP_-9" edge="1">
                    <mxGeometry width="50" height="50" relative="1" as="geometry">
                        <mxPoint x="839" y="1470" as="sourcePoint"/>
                        <mxPoint x="910" y="300" as="targetPoint"/>
                    </mxGeometry>
                </mxCell>
                <mxCell id="tuJECXELKrIchDs7tuP_-17" value="" style="endArrow=none;dashed=1;html=1;rounded=0;entryX=0.5;entryY=1;entryDx=0;entryDy=0;dashPattern=8 8;startArrow=none;" parent="1" target="tuJECXELKrIchDs7tuP_-10" edge="1">
                    <mxGeometry width="50" height="50" relative="1" as="geometry">
                        <mxPoint x="960" y="1370" as="sourcePoint"/>
                        <mxPoint x="910" y="300" as="targetPoint"/>
                    </mxGeometry>
                </mxCell>
                <mxCell id="tuJECXELKrIchDs7tuP_-18" value="" style="endArrow=none;dashed=1;html=1;rounded=0;entryX=0.5;entryY=1;entryDx=0;entryDy=0;dashPattern=8 8;startArrow=none;" parent="1" source="541" edge="1">
                    <mxGeometry width="50" height="50" relative="1" as="geometry">
                        <mxPoint x="1079" y="860" as="sourcePoint"/>
                        <mxPoint x="1080" y="-159.9999999999999" as="targetPoint"/>
                    </mxGeometry>
                </mxCell>
                <mxCell id="399" style="edgeStyle=none;html=1;exitX=1;exitY=1;exitDx=0;exitDy=0;entryX=0;entryY=0;entryDx=0;entryDy=0;" parent="1" source="tuJECXELKrIchDs7tuP_-20" target="396" edge="1">
                    <mxGeometry relative="1" as="geometry"/>
                </mxCell>
                <mxCell id="tuJECXELKrIchDs7tuP_-20" value="" style="rounded=0;whiteSpace=wrap;html=1;" parent="1" vertex="1">
                    <mxGeometry x="110" y="-120" width="20" height="40" as="geometry"/>
                </mxCell>
                <mxCell id="tuJECXELKrIchDs7tuP_-21" value="" style="endArrow=classic;html=1;rounded=0;entryX=0;entryY=0;entryDx=0;entryDy=0;" parent="1" target="tuJECXELKrIchDs7tuP_-20" edge="1">
                    <mxGeometry width="50" height="50" relative="1" as="geometry">
                        <mxPoint x="-70" y="-120" as="sourcePoint"/>
                        <mxPoint x="320" y="40" as="targetPoint"/>
                    </mxGeometry>
                </mxCell>
                <mxCell id="tuJECXELKrIchDs7tuP_-28" value="Access&lt;br&gt;Manager&lt;br&gt;(Client)" style="whiteSpace=wrap;html=1;aspect=fixed;" parent="1" vertex="1">
                    <mxGeometry x="200" y="-240" width="80" height="80" as="geometry"/>
                </mxCell>
                <mxCell id="tuJECXELKrIchDs7tuP_-29" value="" style="endArrow=none;dashed=1;html=1;rounded=0;entryX=0.5;entryY=1;entryDx=0;entryDy=0;dashPattern=8 8;startArrow=none;" parent="1" source="404" target="tuJECXELKrIchDs7tuP_-28" edge="1">
                    <mxGeometry width="50" height="50" relative="1" as="geometry">
                        <mxPoint x="240" y="2720" as="sourcePoint"/>
                        <mxPoint x="290" y="190" as="targetPoint"/>
                    </mxGeometry>
                </mxCell>
                <mxCell id="tuJECXELKrIchDs7tuP_-30" value="DB&lt;br&gt;Connector&lt;br&gt;(Client)" style="whiteSpace=wrap;html=1;aspect=fixed;" parent="1" vertex="1">
                    <mxGeometry x="320" y="-240" width="80" height="80" as="geometry"/>
                </mxCell>
                <mxCell id="tuJECXELKrIchDs7tuP_-31" value="" style="endArrow=none;dashed=1;html=1;rounded=0;entryX=0.5;entryY=1;entryDx=0;entryDy=0;dashPattern=8 8;startArrow=none;" parent="1" source="401" target="tuJECXELKrIchDs7tuP_-30" edge="1">
                    <mxGeometry width="50" height="50" relative="1" as="geometry">
                        <mxPoint x="360" y="310" as="sourcePoint"/>
                        <mxPoint x="410" y="-60" as="targetPoint"/>
                    </mxGeometry>
                </mxCell>
                <mxCell id="tuJECXELKrIchDs7tuP_-33" value="" style="endArrow=classic;html=1;rounded=0;exitX=1;exitY=1;exitDx=0;exitDy=0;entryX=0;entryY=0;entryDx=0;entryDy=0;" parent="1" target="tuJECXELKrIchDs7tuP_-32" edge="1">
                    <mxGeometry width="50" height="50" relative="1" as="geometry">
                        <mxPoint x="130" y="240" as="sourcePoint"/>
                        <mxPoint x="580" y="370" as="targetPoint"/>
                    </mxGeometry>
                </mxCell>
                <mxCell id="tuJECXELKrIchDs7tuP_-38" value="UpdatePass(login, password, new_password)" style="text;strokeColor=none;align=center;fillColor=none;html=1;verticalAlign=middle;whiteSpace=wrap;rounded=0;" parent="1" vertex="1">
                    <mxGeometry x="54" y="246" width="178" height="30" as="geometry"/>
                </mxCell>
                <mxCell id="tuJECXELKrIchDs7tuP_-41" value="command: update-pass&lt;br&gt;new_password" style="text;html=1;strokeColor=none;fillColor=none;align=left;verticalAlign=middle;whiteSpace=wrap;rounded=0;" parent="1" vertex="1">
                    <mxGeometry x="-60" y="-136" width="135" height="30" as="geometry"/>
                </mxCell>
                <mxCell id="373" style="edgeStyle=none;html=1;exitX=1;exitY=1;exitDx=0;exitDy=0;entryX=0;entryY=0;entryDx=0;entryDy=0;" parent="1" target="372" edge="1">
                    <mxGeometry relative="1" as="geometry">
                        <mxPoint x="250" y="280" as="sourcePoint"/>
                    </mxGeometry>
                </mxCell>
                <mxCell id="95" value="" style="endArrow=none;dashed=1;html=1;rounded=0;entryX=0.5;entryY=1;entryDx=0;entryDy=0;dashPattern=8 8;startArrow=none;" parent="1" source="426" edge="1">
                    <mxGeometry width="50" height="50" relative="1" as="geometry">
                        <mxPoint x="720" y="2700" as="sourcePoint"/>
                        <mxPoint x="720.0000000000002" y="140" as="targetPoint"/>
                    </mxGeometry>
                </mxCell>
                <mxCell id="300" value="Data&lt;br&gt;Keeper&lt;br&gt;(Server)" style="whiteSpace=wrap;html=1;aspect=fixed;" parent="1" vertex="1">
                    <mxGeometry x="1160" y="-240" width="80" height="80" as="geometry"/>
                </mxCell>
                <mxCell id="301" value="" style="endArrow=none;dashed=1;html=1;strokeWidth=1;entryX=0.5;entryY=1;entryDx=0;entryDy=0;dashPattern=8 8;startArrow=none;" parent="1" source="448" target="300" edge="1">
                    <mxGeometry width="50" height="50" relative="1" as="geometry">
                        <mxPoint x="1200" y="1440" as="sourcePoint"/>
                        <mxPoint x="1690" y="760" as="targetPoint"/>
                    </mxGeometry>
                </mxCell>
                <mxCell id="376" style="edgeStyle=none;html=1;exitX=1;exitY=1;exitDx=0;exitDy=0;" parent="1" source="372" edge="1">
                    <mxGeometry relative="1" as="geometry">
                        <mxPoint x="830" y="319.66666666666674" as="targetPoint"/>
                    </mxGeometry>
                </mxCell>
                <mxCell id="374" value="UpdatePass()" style="text;html=1;strokeColor=none;fillColor=none;align=center;verticalAlign=middle;whiteSpace=wrap;rounded=0;" parent="1" vertex="1">
                    <mxGeometry x="387" y="256" width="60" height="30" as="geometry"/>
                </mxCell>
                <mxCell id="381" style="edgeStyle=none;html=1;exitX=1;exitY=1;exitDx=0;exitDy=0;" parent="1" edge="1">
                    <mxGeometry relative="1" as="geometry">
                        <mxPoint x="951" y="599.6666666666667" as="targetPoint"/>
                        <mxPoint x="850" y="600" as="sourcePoint"/>
                    </mxGeometry>
                </mxCell>
                <mxCell id="450" style="edgeStyle=none;html=1;exitX=1;exitY=1;exitDx=0;exitDy=0;" parent="1" edge="1">
                    <mxGeometry relative="1" as="geometry">
                        <mxPoint x="1190" y="439.68421052631584" as="targetPoint"/>
                        <mxPoint x="849" y="440" as="sourcePoint"/>
                    </mxGeometry>
                </mxCell>
                <mxCell id="540" style="edgeStyle=none;html=1;exitX=1;exitY=1;exitDx=0;exitDy=0;entryX=0;entryY=0;entryDx=0;entryDy=0;" parent="1" source="375" target="539" edge="1">
                    <mxGeometry relative="1" as="geometry"/>
                </mxCell>
                <mxCell id="375" value="" style="rounded=0;whiteSpace=wrap;html=1;" parent="1" vertex="1">
                    <mxGeometry x="829" y="320" width="20" height="40" as="geometry"/>
                </mxCell>
                <mxCell id="377" value="UpdatePass()" style="text;html=1;strokeColor=none;fillColor=none;align=center;verticalAlign=middle;whiteSpace=wrap;rounded=0;" parent="1" vertex="1">
                    <mxGeometry x="746" y="296" width="60" height="30" as="geometry"/>
                </mxCell>
                <mxCell id="378" value="simple RPC" style="text;html=1;strokeColor=none;fillColor=none;align=center;verticalAlign=middle;whiteSpace=wrap;rounded=0;" parent="1" vertex="1">
                    <mxGeometry x="738" y="316" width="80" height="30" as="geometry"/>
                </mxCell>
                <mxCell id="387" style="edgeStyle=none;html=1;exitX=1;exitY=1;exitDx=0;exitDy=0;" parent="1" source="379" edge="1">
                    <mxGeometry relative="1" as="geometry">
                        <mxPoint x="1071" y="639.6666666666667" as="targetPoint"/>
                    </mxGeometry>
                </mxCell>
                <mxCell id="379" value="" style="rounded=0;whiteSpace=wrap;html=1;" parent="1" vertex="1">
                    <mxGeometry x="951" y="600" width="20" height="40" as="geometry"/>
                </mxCell>
                <mxCell id="382" value="CheckAndLockUser()" style="text;html=1;strokeColor=none;fillColor=none;align=center;verticalAlign=middle;whiteSpace=wrap;rounded=0;" parent="1" vertex="1">
                    <mxGeometry x="881.5" y="575" width="60" height="30" as="geometry"/>
                </mxCell>
                <mxCell id="384" value="" style="endArrow=none;dashed=1;html=1;rounded=0;entryX=0.5;entryY=1;entryDx=0;entryDy=0;dashPattern=8 8;startArrow=none;" parent="1" source="464" target="383" edge="1">
                    <mxGeometry width="50" height="50" relative="1" as="geometry">
                        <mxPoint x="1078" y="1719" as="sourcePoint"/>
                        <mxPoint x="1080" y="480.0000000000001" as="targetPoint"/>
                    </mxGeometry>
                </mxCell>
                <mxCell id="390" style="edgeStyle=none;html=1;exitX=0;exitY=1;exitDx=0;exitDy=0;dashed=1;" parent="1" source="383" edge="1">
                    <mxGeometry relative="1" as="geometry">
                        <mxPoint x="971" y="679.6666666666667" as="targetPoint"/>
                    </mxGeometry>
                </mxCell>
                <mxCell id="383" value="" style="rounded=0;whiteSpace=wrap;html=1;" parent="1" vertex="1">
                    <mxGeometry x="1071.5" y="640" width="20" height="40" as="geometry"/>
                </mxCell>
                <mxCell id="388" value="UpdatePass(randomString)" style="text;html=1;strokeColor=none;fillColor=none;align=center;verticalAlign=middle;whiteSpace=wrap;rounded=0;" parent="1" vertex="1">
                    <mxGeometry x="1019" y="613" width="60" height="30" as="geometry"/>
                </mxCell>
                <mxCell id="393" style="edgeStyle=none;html=1;exitX=0;exitY=1;exitDx=0;exitDy=0;entryX=1;entryY=0;entryDx=0;entryDy=0;dashed=1;" parent="1" source="389" edge="1">
                    <mxGeometry relative="1" as="geometry">
                        <mxPoint x="851" y="720" as="targetPoint"/>
                    </mxGeometry>
                </mxCell>
                <mxCell id="389" value="" style="rounded=0;whiteSpace=wrap;html=1;" parent="1" vertex="1">
                    <mxGeometry x="951" y="680" width="20" height="40" as="geometry"/>
                </mxCell>
                <mxCell id="391" value="error" style="text;html=1;strokeColor=none;fillColor=none;align=center;verticalAlign=middle;whiteSpace=wrap;rounded=0;" parent="1" vertex="1">
                    <mxGeometry x="990" y="657" width="60" height="30" as="geometry"/>
                </mxCell>
                <mxCell id="447" style="edgeStyle=none;html=1;exitX=1;exitY=1;exitDx=0;exitDy=0;entryX=0;entryY=0;entryDx=0;entryDy=0;" parent="1" source="392" target="445" edge="1">
                    <mxGeometry relative="1" as="geometry"/>
                </mxCell>
                <mxCell id="392" value="" style="rounded=0;whiteSpace=wrap;html=1;" parent="1" vertex="1">
                    <mxGeometry x="829.5" y="720" width="20" height="40" as="geometry"/>
                </mxCell>
                <mxCell id="394" value="error" style="text;html=1;strokeColor=none;fillColor=none;align=center;verticalAlign=middle;whiteSpace=wrap;rounded=0;" parent="1" vertex="1">
                    <mxGeometry x="869.5" y="696" width="60" height="30" as="geometry"/>
                </mxCell>
                <mxCell id="403" style="edgeStyle=none;html=1;exitX=1;exitY=1;exitDx=0;exitDy=0;entryX=0;entryY=0;entryDx=0;entryDy=0;" parent="1" source="396" target="401" edge="1">
                    <mxGeometry relative="1" as="geometry"/>
                </mxCell>
                <mxCell id="396" value="" style="rounded=0;whiteSpace=wrap;html=1;" parent="1" vertex="1">
                    <mxGeometry x="230" y="-80" width="20" height="40" as="geometry"/>
                </mxCell>
                <mxCell id="402" value="" style="endArrow=none;dashed=1;html=1;rounded=0;entryX=0.5;entryY=1;entryDx=0;entryDy=0;dashPattern=8 8;startArrow=none;" parent="1" source="488" target="401" edge="1">
                    <mxGeometry width="50" height="50" relative="1" as="geometry">
                        <mxPoint x="359" y="1423.3333333333333" as="sourcePoint"/>
                        <mxPoint x="360" y="-160" as="targetPoint"/>
                    </mxGeometry>
                </mxCell>
                <mxCell id="406" style="edgeStyle=none;html=1;exitX=0;exitY=1;exitDx=0;exitDy=0;entryX=1;entryY=0;entryDx=0;entryDy=0;dashed=1;" parent="1" source="401" target="404" edge="1">
                    <mxGeometry relative="1" as="geometry"/>
                </mxCell>
                <mxCell id="401" value="" style="rounded=0;whiteSpace=wrap;html=1;" parent="1" vertex="1">
                    <mxGeometry x="350" y="-40" width="20" height="40" as="geometry"/>
                </mxCell>
                <mxCell id="405" value="" style="endArrow=none;dashed=1;html=1;rounded=0;entryX=0.5;entryY=1;entryDx=0;entryDy=0;dashPattern=8 8;startArrow=none;" parent="1" source="494" target="404" edge="1">
                    <mxGeometry width="50" height="50" relative="1" as="geometry">
                        <mxPoint x="240" y="2720" as="sourcePoint"/>
                        <mxPoint x="240" y="-160" as="targetPoint"/>
                    </mxGeometry>
                </mxCell>
                <mxCell id="409" style="edgeStyle=none;html=1;exitX=0;exitY=1;exitDx=0;exitDy=0;entryX=1;entryY=0;entryDx=0;entryDy=0;dashed=1;" parent="1" source="404" target="407" edge="1">
                    <mxGeometry relative="1" as="geometry"/>
                </mxCell>
                <mxCell id="404" value="" style="rounded=0;whiteSpace=wrap;html=1;" parent="1" vertex="1">
                    <mxGeometry x="230" width="20" height="40" as="geometry"/>
                </mxCell>
                <mxCell id="408" value="" style="endArrow=none;dashed=1;html=1;rounded=0;entryX=0.5;entryY=1;entryDx=0;entryDy=0;dashPattern=8 8;startArrow=none;" parent="1" source="439" target="407" edge="1">
                    <mxGeometry width="50" height="50" relative="1" as="geometry">
                        <mxPoint x="119" y="1450" as="sourcePoint"/>
                        <mxPoint x="120" y="-160" as="targetPoint"/>
                    </mxGeometry>
                </mxCell>
                <mxCell id="418" style="edgeStyle=none;html=1;exitX=1;exitY=1;exitDx=0;exitDy=0;entryX=0;entryY=0;entryDx=0;entryDy=0;" parent="1" source="407" target="416" edge="1">
                    <mxGeometry relative="1" as="geometry"/>
                </mxCell>
                <mxCell id="407" value="" style="rounded=0;whiteSpace=wrap;html=1;" parent="1" vertex="1">
                    <mxGeometry x="110" y="40" width="20" height="40" as="geometry"/>
                </mxCell>
                <mxCell id="410" value="GetCreds()" style="text;html=1;strokeColor=none;fillColor=none;align=center;verticalAlign=middle;whiteSpace=wrap;rounded=0;" parent="1" vertex="1">
                    <mxGeometry x="150" y="-104" width="60" height="30" as="geometry"/>
                </mxCell>
                <mxCell id="411" value="GetCreds()" style="text;html=1;strokeColor=none;fillColor=none;align=center;verticalAlign=middle;whiteSpace=wrap;rounded=0;" parent="1" vertex="1">
                    <mxGeometry x="269" y="-65" width="60" height="30" as="geometry"/>
                </mxCell>
                <mxCell id="412" value="userID&lt;br&gt;token" style="text;html=1;strokeColor=none;fillColor=none;align=center;verticalAlign=middle;whiteSpace=wrap;rounded=0;" parent="1" vertex="1">
                    <mxGeometry x="270" y="-15" width="60" height="30" as="geometry"/>
                </mxCell>
                <mxCell id="413" value="userID&lt;br&gt;token" style="text;html=1;strokeColor=none;fillColor=none;align=center;verticalAlign=middle;whiteSpace=wrap;rounded=0;" parent="1" vertex="1">
                    <mxGeometry x="150" y="27" width="60" height="25" as="geometry"/>
                </mxCell>
                <mxCell id="417" value="" style="endArrow=none;dashed=1;html=1;rounded=0;entryX=0.5;entryY=1;entryDx=0;entryDy=0;dashPattern=8 8;startArrow=none;" parent="1" source="430" target="416" edge="1">
                    <mxGeometry width="50" height="50" relative="1" as="geometry">
                        <mxPoint x="479" y="1460" as="sourcePoint"/>
                        <mxPoint x="480" y="-160" as="targetPoint"/>
                    </mxGeometry>
                </mxCell>
                <mxCell id="422" style="edgeStyle=none;html=1;exitX=1;exitY=1;exitDx=0;exitDy=0;entryX=-0.038;entryY=-0.003;entryDx=0;entryDy=0;entryPerimeter=0;" parent="1" target="425" edge="1">
                    <mxGeometry relative="1" as="geometry">
                        <mxPoint x="490.0000000000002" y="100" as="sourcePoint"/>
                        <mxPoint x="590.0000000000002" y="100" as="targetPoint"/>
                    </mxGeometry>
                </mxCell>
                <mxCell id="429" style="edgeStyle=none;html=1;exitX=0;exitY=1;exitDx=0;exitDy=0;entryX=1;entryY=0;entryDx=0;entryDy=0;" parent="1" source="416" target="428" edge="1">
                    <mxGeometry relative="1" as="geometry"/>
                </mxCell>
                <mxCell id="416" value="" style="rounded=0;whiteSpace=wrap;html=1;" parent="1" vertex="1">
                    <mxGeometry x="470" y="80" width="20" height="40" as="geometry"/>
                </mxCell>
                <mxCell id="419" value="CheckSync()" style="text;html=1;strokeColor=none;fillColor=none;align=center;verticalAlign=middle;whiteSpace=wrap;rounded=0;" parent="1" vertex="1">
                    <mxGeometry x="270" y="52" width="60" height="30" as="geometry"/>
                </mxCell>
                <mxCell id="423" value="GetMetadata()" style="text;html=1;strokeColor=none;fillColor=none;align=center;verticalAlign=middle;whiteSpace=wrap;rounded=0;" parent="1" vertex="1">
                    <mxGeometry x="510" y="74" width="60" height="30" as="geometry"/>
                </mxCell>
                <mxCell id="425" value="" style="shape=document;whiteSpace=wrap;html=1;boundedLbl=1;size=0.5;" parent="1" vertex="1">
                    <mxGeometry x="710" y="100" width="20" height="40" as="geometry"/>
                </mxCell>
                <mxCell id="427" value="" style="endArrow=none;dashed=1;html=1;rounded=0;entryX=0.5;entryY=1;entryDx=0;entryDy=0;dashPattern=8 8;startArrow=none;" parent="1" source="481" target="426" edge="1">
                    <mxGeometry width="50" height="50" relative="1" as="geometry">
                        <mxPoint x="720.0000000000002" y="2720.0000000000005" as="sourcePoint"/>
                        <mxPoint x="720.0000000000002" y="160" as="targetPoint"/>
                    </mxGeometry>
                </mxCell>
                <mxCell id="436" style="edgeStyle=none;html=1;exitX=0.75;exitY=0;exitDx=0;exitDy=0;entryX=1;entryY=0.5;entryDx=0;entryDy=0;dashed=1;" parent="1" source="426" target="430" edge="1">
                    <mxGeometry relative="1" as="geometry"/>
                </mxCell>
                <mxCell id="426" value="" style="shape=document;whiteSpace=wrap;html=1;boundedLbl=1;size=0.5;rotation=-180;" parent="1" vertex="1">
                    <mxGeometry x="710" y="146" width="20" height="33" as="geometry"/>
                </mxCell>
                <mxCell id="432" style="edgeStyle=none;html=1;exitX=1;exitY=1;exitDx=0;exitDy=0;entryX=0;entryY=0;entryDx=0;entryDy=0;dashed=1;" parent="1" source="428" target="430" edge="1">
                    <mxGeometry relative="1" as="geometry"/>
                </mxCell>
                <mxCell id="428" value="" style="rounded=0;whiteSpace=wrap;html=1;" parent="1" vertex="1">
                    <mxGeometry x="350" y="120" width="20" height="40" as="geometry"/>
                </mxCell>
                <mxCell id="431" value="" style="endArrow=none;dashed=1;html=1;rounded=0;entryX=0.5;entryY=1;entryDx=0;entryDy=0;dashPattern=8 8;startArrow=none;" parent="1" target="430" edge="1">
                    <mxGeometry width="50" height="50" relative="1" as="geometry">
                        <mxPoint x="480" y="1370" as="sourcePoint"/>
                        <mxPoint x="480.0000000000002" y="120" as="targetPoint"/>
                    </mxGeometry>
                </mxCell>
                <mxCell id="441" style="edgeStyle=none;html=1;exitX=0;exitY=1;exitDx=0;exitDy=0;entryX=1;entryY=0;entryDx=0;entryDy=0;dashed=1;" parent="1" source="430" target="439" edge="1">
                    <mxGeometry relative="1" as="geometry"/>
                </mxCell>
                <mxCell id="430" value="" style="rounded=0;whiteSpace=wrap;html=1;" parent="1" vertex="1">
                    <mxGeometry x="470" y="160" width="20" height="40" as="geometry"/>
                </mxCell>
                <mxCell id="433" value="GetMetadata()" style="text;html=1;strokeColor=none;fillColor=none;align=center;verticalAlign=middle;whiteSpace=wrap;rounded=0;" parent="1" vertex="1">
                    <mxGeometry x="394" y="98" width="60" height="30" as="geometry"/>
                </mxCell>
                <mxCell id="434" value="metadata" style="text;html=1;strokeColor=none;fillColor=none;align=center;verticalAlign=middle;whiteSpace=wrap;rounded=0;" parent="1" vertex="1">
                    <mxGeometry x="387" y="137" width="60" height="30" as="geometry"/>
                </mxCell>
                <mxCell id="437" value="metadata" style="text;html=1;strokeColor=none;fillColor=none;align=center;verticalAlign=middle;whiteSpace=wrap;rounded=0;" parent="1" vertex="1">
                    <mxGeometry x="510" y="155" width="60" height="30" as="geometry"/>
                </mxCell>
                <mxCell id="438" value="see&lt;br&gt;&quot;sync&quot;&lt;br&gt;diagram" style="text;html=1;strokeColor=none;fillColor=none;align=center;verticalAlign=middle;whiteSpace=wrap;rounded=0;" parent="1" vertex="1">
                    <mxGeometry x="730" y="125" width="60" height="30" as="geometry"/>
                </mxCell>
                <mxCell id="440" value="" style="endArrow=none;dashed=1;html=1;rounded=0;entryX=0.5;entryY=1;entryDx=0;entryDy=0;dashPattern=8 8;startArrow=none;" parent="1" target="439" edge="1">
                    <mxGeometry width="50" height="50" relative="1" as="geometry">
                        <mxPoint x="120" y="1370" as="sourcePoint"/>
                        <mxPoint x="120" y="80" as="targetPoint"/>
                    </mxGeometry>
                </mxCell>
                <mxCell id="439" value="" style="rounded=0;whiteSpace=wrap;html=1;" parent="1" vertex="1">
                    <mxGeometry x="110" y="200" width="20" height="40" as="geometry"/>
                </mxCell>
                <mxCell id="442" value="result" style="text;html=1;strokeColor=none;fillColor=none;align=center;verticalAlign=middle;whiteSpace=wrap;rounded=0;" parent="1" vertex="1">
                    <mxGeometry x="270" y="176" width="60" height="30" as="geometry"/>
                </mxCell>
                <mxCell id="443" value="File&lt;br&gt;Storage&lt;br&gt;(Server)&lt;br&gt;" style="whiteSpace=wrap;html=1;aspect=fixed;" parent="1" vertex="1">
                    <mxGeometry x="1280" y="-240" width="80" height="80" as="geometry"/>
                </mxCell>
                <mxCell id="444" value="" style="endArrow=none;dashed=1;html=1;entryX=0.5;entryY=1;entryDx=0;entryDy=0;dashPattern=8 8;startArrow=none;" parent="1" source="468" target="443" edge="1">
                    <mxGeometry width="50" height="50" relative="1" as="geometry">
                        <mxPoint x="1320" y="1450" as="sourcePoint"/>
                        <mxPoint x="1270" y="-10" as="targetPoint"/>
                    </mxGeometry>
                </mxCell>
                <mxCell id="446" value="" style="endArrow=none;dashed=1;html=1;strokeWidth=1;entryX=0.5;entryY=1;entryDx=0;entryDy=0;dashPattern=8 8;startArrow=none;" parent="1" target="445" edge="1">
                    <mxGeometry width="50" height="50" relative="1" as="geometry">
                        <mxPoint x="1200" y="1370" as="sourcePoint"/>
                        <mxPoint x="1200" y="79" as="targetPoint"/>
                    </mxGeometry>
                </mxCell>
                <mxCell id="473" style="edgeStyle=none;html=1;exitX=1;exitY=0.5;exitDx=0;exitDy=0;entryX=0;entryY=0;entryDx=0;entryDy=0;" parent="1" target="468" edge="1">
                    <mxGeometry relative="1" as="geometry">
                        <mxPoint x="1209.5" y="798.4999999999998" as="sourcePoint"/>
                    </mxGeometry>
                </mxCell>
                <mxCell id="479" style="edgeStyle=none;html=1;exitX=0;exitY=1;exitDx=0;exitDy=0;entryX=1;entryY=0;entryDx=0;entryDy=0;dashed=1;" parent="1" source="445" target="477" edge="1">
                    <mxGeometry relative="1" as="geometry"/>
                </mxCell>
                <mxCell id="445" value="" style="rounded=0;whiteSpace=wrap;html=1;" parent="1" vertex="1">
                    <mxGeometry x="1189.5" y="760" width="20" height="159" as="geometry"/>
                </mxCell>
                <mxCell id="449" value="" style="endArrow=none;dashed=1;html=1;strokeWidth=1;entryX=0.5;entryY=1;entryDx=0;entryDy=0;dashPattern=8 8;startArrow=none;" parent="1" source="445" target="448" edge="1">
                    <mxGeometry width="50" height="50" relative="1" as="geometry">
                        <mxPoint x="1200" y="907" as="sourcePoint"/>
                        <mxPoint x="1200" y="79" as="targetPoint"/>
                    </mxGeometry>
                </mxCell>
                <mxCell id="454" style="edgeStyle=none;html=1;exitX=0;exitY=1;exitDx=0;exitDy=0;entryX=1;entryY=0;entryDx=0;entryDy=0;" parent="1" source="448" target="452" edge="1">
                    <mxGeometry relative="1" as="geometry"/>
                </mxCell>
                <mxCell id="448" value="" style="rounded=0;whiteSpace=wrap;html=1;" parent="1" vertex="1">
                    <mxGeometry x="1190" y="440" width="20" height="40" as="geometry"/>
                </mxCell>
                <mxCell id="451" value="CheckAndLockAll()" style="text;html=1;strokeColor=none;fillColor=none;align=center;verticalAlign=middle;whiteSpace=wrap;rounded=0;" parent="1" vertex="1">
                    <mxGeometry x="988" y="416" width="60" height="30" as="geometry"/>
                </mxCell>
                <mxCell id="453" value="" style="endArrow=none;dashed=1;html=1;rounded=0;entryX=0.5;entryY=1;entryDx=0;entryDy=0;dashPattern=8 8;startArrow=none;" parent="1" source="383" target="452" edge="1">
                    <mxGeometry width="50" height="50" relative="1" as="geometry">
                        <mxPoint x="1080.486263736264" y="787" as="sourcePoint"/>
                        <mxPoint x="1080" y="79" as="targetPoint"/>
                    </mxGeometry>
                </mxCell>
                <mxCell id="457" style="edgeStyle=none;html=1;exitX=1;exitY=1;exitDx=0;exitDy=0;entryX=0;entryY=0;entryDx=0;entryDy=0;dashed=1;" parent="1" source="452" target="456" edge="1">
                    <mxGeometry relative="1" as="geometry"/>
                </mxCell>
                <mxCell id="452" value="" style="rounded=0;whiteSpace=wrap;html=1;" parent="1" vertex="1">
                    <mxGeometry x="1070" y="480" width="20" height="40" as="geometry"/>
                </mxCell>
                <mxCell id="455" value="CheckAndLockAll()" style="text;html=1;strokeColor=none;fillColor=none;align=center;verticalAlign=middle;whiteSpace=wrap;rounded=0;" parent="1" vertex="1">
                    <mxGeometry x="1106" y="453" width="60" height="30" as="geometry"/>
                </mxCell>
                <mxCell id="460" style="edgeStyle=none;html=1;exitX=0;exitY=1;exitDx=0;exitDy=0;entryX=1;entryY=0;entryDx=0;entryDy=0;dashed=1;" parent="1" source="456" edge="1">
                    <mxGeometry relative="1" as="geometry">
                        <mxPoint x="849" y="561" as="targetPoint"/>
                    </mxGeometry>
                </mxCell>
                <mxCell id="456" value="" style="rounded=0;whiteSpace=wrap;html=1;" parent="1" vertex="1">
                    <mxGeometry x="1190" y="520" width="20" height="40" as="geometry"/>
                </mxCell>
                <mxCell id="458" value="error" style="text;html=1;strokeColor=none;fillColor=none;align=center;verticalAlign=middle;whiteSpace=wrap;rounded=0;" parent="1" vertex="1">
                    <mxGeometry x="1108" y="496" width="60" height="30" as="geometry"/>
                </mxCell>
                <mxCell id="459" value="" style="rounded=0;whiteSpace=wrap;html=1;" parent="1" vertex="1">
                    <mxGeometry x="830" y="560" width="20" height="40" as="geometry"/>
                </mxCell>
                <mxCell id="461" value="error" style="text;html=1;strokeColor=none;fillColor=none;align=center;verticalAlign=middle;whiteSpace=wrap;rounded=0;" parent="1" vertex="1">
                    <mxGeometry x="988" y="536" width="60" height="30" as="geometry"/>
                </mxCell>
                <mxCell id="463" value="ForceDeleteAll()" style="text;html=1;strokeColor=none;fillColor=none;align=center;verticalAlign=middle;whiteSpace=wrap;rounded=0;" parent="1" vertex="1">
                    <mxGeometry x="986.5" y="736" width="60" height="30" as="geometry"/>
                </mxCell>
                <mxCell id="465" value="" style="endArrow=none;dashed=1;html=1;rounded=0;entryX=0.5;entryY=1;entryDx=0;entryDy=0;dashPattern=8 8;startArrow=none;" parent="1" target="464" edge="1">
                    <mxGeometry width="50" height="50" relative="1" as="geometry">
                        <mxPoint x="1080" y="1370" as="sourcePoint"/>
                        <mxPoint x="1080.5" y="840" as="targetPoint"/>
                    </mxGeometry>
                </mxCell>
                <mxCell id="470" style="edgeStyle=none;html=1;exitX=0;exitY=0.25;exitDx=0;exitDy=0;entryX=1;entryY=0;entryDx=0;entryDy=0;" parent="1" target="464" edge="1">
                    <mxGeometry relative="1" as="geometry">
                        <mxPoint x="1189.5" y="838.75" as="sourcePoint"/>
                    </mxGeometry>
                </mxCell>
                <mxCell id="471" style="edgeStyle=none;html=1;exitX=1;exitY=1;exitDx=0;exitDy=0;dashed=1;" parent="1" source="464" edge="1">
                    <mxGeometry relative="1" as="geometry">
                        <mxPoint x="1189.5" y="878.5456621004564" as="targetPoint"/>
                    </mxGeometry>
                </mxCell>
                <mxCell id="464" value="" style="rounded=0;whiteSpace=wrap;html=1;" parent="1" vertex="1">
                    <mxGeometry x="1070" y="839" width="20" height="40" as="geometry"/>
                </mxCell>
                <mxCell id="469" value="" style="endArrow=none;dashed=1;html=1;entryX=0.5;entryY=1;entryDx=0;entryDy=0;dashPattern=8 8;" parent="1" target="468" edge="1">
                    <mxGeometry width="50" height="50" relative="1" as="geometry">
                        <mxPoint x="1320" y="1370" as="sourcePoint"/>
                        <mxPoint x="1320" y="79" as="targetPoint"/>
                    </mxGeometry>
                </mxCell>
                <mxCell id="474" style="edgeStyle=none;html=1;exitX=0;exitY=1;exitDx=0;exitDy=0;entryX=1;entryY=0.75;entryDx=0;entryDy=0;dashed=1;" parent="1" source="468" edge="1">
                    <mxGeometry relative="1" as="geometry">
                        <mxPoint x="1209.5" y="838.25" as="targetPoint"/>
                    </mxGeometry>
                </mxCell>
                <mxCell id="468" value="" style="rounded=0;whiteSpace=wrap;html=1;" parent="1" vertex="1">
                    <mxGeometry x="1309.5" y="799" width="20" height="40" as="geometry"/>
                </mxCell>
                <mxCell id="475" value="forceDelete()" style="text;html=1;strokeColor=none;fillColor=none;align=center;verticalAlign=middle;whiteSpace=wrap;rounded=0;" parent="1" vertex="1">
                    <mxGeometry x="1081.5" y="816" width="106" height="30" as="geometry"/>
                </mxCell>
                <mxCell id="476" value="forceDelete()" style="text;html=1;strokeColor=none;fillColor=none;align=center;verticalAlign=middle;whiteSpace=wrap;rounded=0;" parent="1" vertex="1">
                    <mxGeometry x="1209.5" y="774" width="106" height="30" as="geometry"/>
                </mxCell>
                <mxCell id="478" value="" style="endArrow=none;dashed=1;html=1;rounded=0;entryX=0.5;entryY=1;entryDx=0;entryDy=0;dashPattern=8 8;startArrow=none;" parent="1" source="569" target="477" edge="1">
                    <mxGeometry width="50" height="50" relative="1" as="geometry">
                        <mxPoint x="839" y="1679" as="sourcePoint"/>
                        <mxPoint x="840" y="79" as="targetPoint"/>
                    </mxGeometry>
                </mxCell>
                <mxCell id="483" style="edgeStyle=none;html=1;entryX=1;entryY=0;entryDx=0;entryDy=0;dashed=1;" parent="1" target="481" edge="1">
                    <mxGeometry relative="1" as="geometry">
                        <mxPoint x="830" y="1120" as="sourcePoint"/>
                    </mxGeometry>
                </mxCell>
                <mxCell id="477" value="" style="rounded=0;whiteSpace=wrap;html=1;" parent="1" vertex="1">
                    <mxGeometry x="829.5" y="919" width="20" height="40" as="geometry"/>
                </mxCell>
                <mxCell id="480" value="error" style="text;html=1;strokeColor=none;fillColor=none;align=center;verticalAlign=middle;whiteSpace=wrap;rounded=0;" parent="1" vertex="1">
                    <mxGeometry x="992.5" y="897" width="60" height="30" as="geometry"/>
                </mxCell>
                <mxCell id="482" value="" style="endArrow=none;dashed=1;html=1;rounded=0;entryX=0.5;entryY=1;entryDx=0;entryDy=0;dashPattern=8 8;" parent="1" target="481" edge="1">
                    <mxGeometry width="50" height="50" relative="1" as="geometry">
                        <mxPoint x="720" y="1370" as="sourcePoint"/>
                        <mxPoint x="600" y="384.9999999999998" as="targetPoint"/>
                    </mxGeometry>
                </mxCell>
                <mxCell id="486" style="edgeStyle=none;html=1;exitX=0;exitY=1;exitDx=0;exitDy=0;entryX=1;entryY=0;entryDx=0;entryDy=0;dashed=1;" parent="1" source="481" target="485" edge="1">
                    <mxGeometry relative="1" as="geometry"/>
                </mxCell>
                <mxCell id="481" value="" style="rounded=0;whiteSpace=wrap;html=1;" parent="1" vertex="1">
                    <mxGeometry x="710" y="1119" width="20" height="40" as="geometry"/>
                </mxCell>
                <mxCell id="484" value="error" style="text;html=1;strokeColor=none;fillColor=none;align=center;verticalAlign=middle;whiteSpace=wrap;rounded=0;" parent="1" vertex="1">
                    <mxGeometry x="750" y="1094" width="60" height="30" as="geometry"/>
                </mxCell>
                <mxCell id="490" style="edgeStyle=none;html=1;exitX=1;exitY=1;exitDx=0;exitDy=0;entryX=0;entryY=0;entryDx=0;entryDy=0;" parent="1" source="485" target="488" edge="1">
                    <mxGeometry relative="1" as="geometry"/>
                </mxCell>
                <mxCell id="485" value="" style="rounded=0;whiteSpace=wrap;html=1;" parent="1" vertex="1">
                    <mxGeometry x="230" y="1159" width="20" height="40" as="geometry"/>
                </mxCell>
                <mxCell id="487" value="error" style="text;html=1;strokeColor=none;fillColor=none;align=center;verticalAlign=middle;whiteSpace=wrap;rounded=0;" parent="1" vertex="1">
                    <mxGeometry x="389" y="1135" width="60" height="30" as="geometry"/>
                </mxCell>
                <mxCell id="489" value="" style="endArrow=none;dashed=1;html=1;rounded=0;entryX=0.5;entryY=1;entryDx=0;entryDy=0;dashPattern=8 8;startArrow=none;" parent="1" target="488" edge="1">
                    <mxGeometry width="50" height="50" relative="1" as="geometry">
                        <mxPoint x="360" y="1380" as="sourcePoint"/>
                        <mxPoint x="360" y="239" as="targetPoint"/>
                    </mxGeometry>
                </mxCell>
                <mxCell id="496" style="edgeStyle=none;html=1;exitX=0;exitY=1;exitDx=0;exitDy=0;entryX=1;entryY=0;entryDx=0;entryDy=0;dashed=1;" parent="1" source="488" target="494" edge="1">
                    <mxGeometry relative="1" as="geometry"/>
                </mxCell>
                <mxCell id="488" value="" style="rounded=0;whiteSpace=wrap;html=1;" parent="1" vertex="1">
                    <mxGeometry x="350" y="1199" width="20" height="40" as="geometry"/>
                </mxCell>
                <mxCell id="491" value="Logout()" style="text;html=1;strokeColor=none;fillColor=none;align=center;verticalAlign=middle;whiteSpace=wrap;rounded=0;" parent="1" vertex="1">
                    <mxGeometry x="270" y="1174" width="60" height="30" as="geometry"/>
                </mxCell>
                <mxCell id="495" value="" style="endArrow=none;dashed=1;html=1;rounded=0;entryX=0.5;entryY=1;entryDx=0;entryDy=0;dashPattern=8 8;" parent="1" target="494" edge="1">
                    <mxGeometry width="50" height="50" relative="1" as="geometry">
                        <mxPoint x="240" y="1370" as="sourcePoint"/>
                        <mxPoint x="240" y="279" as="targetPoint"/>
                    </mxGeometry>
                </mxCell>
                <mxCell id="501" style="edgeStyle=none;html=1;exitX=0;exitY=1;exitDx=0;exitDy=0;entryX=1;entryY=0;entryDx=0;entryDy=0;dashed=1;" parent="1" source="494" target="500" edge="1">
                    <mxGeometry relative="1" as="geometry"/>
                </mxCell>
                <mxCell id="494" value="" style="rounded=0;whiteSpace=wrap;html=1;" parent="1" vertex="1">
                    <mxGeometry x="230" y="1239" width="20" height="40" as="geometry"/>
                </mxCell>
                <mxCell id="497" value="error" style="text;html=1;strokeColor=none;fillColor=none;align=center;verticalAlign=middle;whiteSpace=wrap;rounded=0;" parent="1" vertex="1">
                    <mxGeometry x="271" y="1215" width="60" height="30" as="geometry"/>
                </mxCell>
                <mxCell id="498" value="error" style="text;html=1;strokeColor=none;fillColor=none;align=center;verticalAlign=middle;whiteSpace=wrap;rounded=0;" parent="1" vertex="1">
                    <mxGeometry x="1106.5" y="855" width="60" height="30" as="geometry"/>
                </mxCell>
                <mxCell id="499" value="error" style="text;html=1;strokeColor=none;fillColor=none;align=center;verticalAlign=middle;whiteSpace=wrap;rounded=0;" parent="1" vertex="1">
                    <mxGeometry x="1230.5" y="813" width="60" height="30" as="geometry"/>
                </mxCell>
                <mxCell id="tuJECXELKrIchDs7tuP_-32" value="" style="rounded=0;whiteSpace=wrap;html=1;" parent="1" vertex="1">
                    <mxGeometry x="230" y="240" width="20" height="40" as="geometry"/>
                </mxCell>
                <mxCell id="372" value="" style="rounded=0;whiteSpace=wrap;html=1;" parent="1" vertex="1">
                    <mxGeometry x="710" y="280" width="20" height="40" as="geometry"/>
                </mxCell>
                <mxCell id="572" style="edgeStyle=none;html=1;exitX=0;exitY=1;exitDx=0;exitDy=0;dashed=1;" parent="1" source="500" edge="1">
                    <mxGeometry relative="1" as="geometry">
                        <mxPoint y="1318.7826086956525" as="targetPoint"/>
                    </mxGeometry>
                </mxCell>
                <mxCell id="500" value="" style="rounded=0;whiteSpace=wrap;html=1;" parent="1" vertex="1">
                    <mxGeometry x="110" y="1279" width="20" height="40" as="geometry"/>
                </mxCell>
                <mxCell id="507" value="Data&lt;br&gt;Cipher" style="whiteSpace=wrap;html=1;aspect=fixed;" parent="1" vertex="1">
                    <mxGeometry x="560" y="-240" width="80" height="80" as="geometry"/>
                </mxCell>
                <mxCell id="508" value="" style="endArrow=none;dashed=1;html=1;entryX=0.5;entryY=1;entryDx=0;entryDy=0;dashPattern=8 8;startArrow=none;" parent="1" target="507" edge="1">
                    <mxGeometry width="50" height="50" relative="1" as="geometry">
                        <mxPoint x="600" y="1370" as="sourcePoint"/>
                        <mxPoint x="820" y="-50" as="targetPoint"/>
                    </mxGeometry>
                </mxCell>
                <mxCell id="549" style="edgeStyle=none;html=1;exitX=0;exitY=1;exitDx=0;exitDy=0;dashed=1;" parent="1" source="539" edge="1">
                    <mxGeometry relative="1" as="geometry">
                        <mxPoint x="850" y="400" as="targetPoint"/>
                    </mxGeometry>
                </mxCell>
                <mxCell id="539" value="" style="rounded=0;whiteSpace=wrap;html=1;" parent="1" vertex="1">
                    <mxGeometry x="950" y="360" width="20" height="40" as="geometry"/>
                </mxCell>
                <mxCell id="542" value="" style="endArrow=none;dashed=1;html=1;rounded=0;entryX=0.5;entryY=1;entryDx=0;entryDy=0;dashPattern=8 8;startArrow=none;" parent="1" source="452" target="541" edge="1">
                    <mxGeometry width="50" height="50" relative="1" as="geometry">
                        <mxPoint x="1080" y="639" as="sourcePoint"/>
                        <mxPoint x="1080" y="-159.99999999999977" as="targetPoint"/>
                    </mxGeometry>
                </mxCell>
                <mxCell id="545" style="edgeStyle=none;html=1;exitX=1;exitY=0.25;exitDx=0;exitDy=0;entryX=0;entryY=0;entryDx=0;entryDy=0;" parent="1" source="539" target="541" edge="1">
                    <mxGeometry relative="1" as="geometry"/>
                </mxCell>
                <mxCell id="546" style="edgeStyle=none;html=1;exitX=0;exitY=1;exitDx=0;exitDy=0;entryX=1;entryY=0.75;entryDx=0;entryDy=0;dashed=1;" parent="1" source="541" target="539" edge="1">
                    <mxGeometry relative="1" as="geometry"/>
                </mxCell>
                <mxCell id="541" value="" style="rounded=0;whiteSpace=wrap;html=1;" parent="1" vertex="1">
                    <mxGeometry x="1070" y="370" width="20" height="20" as="geometry"/>
                </mxCell>
                <mxCell id="543" value="GetUser()" style="text;html=1;strokeColor=none;fillColor=none;align=center;verticalAlign=middle;whiteSpace=wrap;rounded=0;" parent="1" vertex="1">
                    <mxGeometry x="868.5" y="330" width="60" height="30" as="geometry"/>
                </mxCell>
                <mxCell id="548" value="" style="endArrow=none;dashed=1;html=1;rounded=0;entryX=0.5;entryY=1;entryDx=0;entryDy=0;dashPattern=8 8;startArrow=none;" parent="1" source="477" target="547" edge="1">
                    <mxGeometry width="50" height="50" relative="1" as="geometry">
                        <mxPoint x="840" y="1079" as="sourcePoint"/>
                        <mxPoint x="840" y="-160" as="targetPoint"/>
                    </mxGeometry>
                </mxCell>
                <mxCell id="547" value="" style="rounded=0;whiteSpace=wrap;html=1;" parent="1" vertex="1">
                    <mxGeometry x="829" y="400" width="20" height="40" as="geometry"/>
                </mxCell>
                <mxCell id="550" value="userID" style="text;html=1;strokeColor=none;fillColor=none;align=center;verticalAlign=middle;whiteSpace=wrap;rounded=0;" parent="1" vertex="1">
                    <mxGeometry x="876" y="393" width="60" height="30" as="geometry"/>
                </mxCell>
                <mxCell id="551" value="go GetUser(login)" style="text;html=1;strokeColor=none;fillColor=none;align=center;verticalAlign=middle;whiteSpace=wrap;rounded=0;" parent="1" vertex="1">
                    <mxGeometry x="970" y="340" width="109" height="30" as="geometry"/>
                </mxCell>
                <mxCell id="552" value="user" style="text;html=1;strokeColor=none;fillColor=none;align=center;verticalAlign=middle;whiteSpace=wrap;rounded=0;" parent="1" vertex="1">
                    <mxGeometry x="989" y="384" width="60" height="30" as="geometry"/>
                </mxCell>
                <mxCell id="554" value="" style="rounded=0;whiteSpace=wrap;html=1;fillColor=none;dashed=1;dashPattern=1 4;" parent="1" vertex="1">
                    <mxGeometry x="1050" y="780" width="300" height="120" as="geometry"/>
                </mxCell>
                <mxCell id="555" value="LOOP" style="text;html=1;strokeColor=none;fillColor=none;align=center;verticalAlign=middle;whiteSpace=wrap;rounded=0;dashed=1;dashPattern=1 4;" parent="1" vertex="1">
                    <mxGeometry x="994.5" y="774" width="60" height="30" as="geometry"/>
                </mxCell>
                <mxCell id="556" style="edgeStyle=none;html=1;exitX=1;exitY=1;exitDx=0;exitDy=0;" parent="1" edge="1">
                    <mxGeometry relative="1" as="geometry">
                        <mxPoint x="950.5" y="958.666666666667" as="targetPoint"/>
                        <mxPoint x="849.5" y="959" as="sourcePoint"/>
                    </mxGeometry>
                </mxCell>
                <mxCell id="557" style="edgeStyle=none;html=1;exitX=1;exitY=1;exitDx=0;exitDy=0;" parent="1" source="558" edge="1">
                    <mxGeometry relative="1" as="geometry">
                        <mxPoint x="1070.5" y="998.666666666667" as="targetPoint"/>
                    </mxGeometry>
                </mxCell>
                <mxCell id="558" value="" style="rounded=0;whiteSpace=wrap;html=1;" parent="1" vertex="1">
                    <mxGeometry x="950.5" y="959" width="20" height="40" as="geometry"/>
                </mxCell>
                <mxCell id="559" value="UpdatePass()" style="text;html=1;strokeColor=none;fillColor=none;align=center;verticalAlign=middle;whiteSpace=wrap;rounded=0;" parent="1" vertex="1">
                    <mxGeometry x="874" y="934" width="60" height="30" as="geometry"/>
                </mxCell>
                <mxCell id="560" style="edgeStyle=none;html=1;exitX=0;exitY=1;exitDx=0;exitDy=0;dashed=1;" parent="1" source="561" edge="1">
                    <mxGeometry relative="1" as="geometry">
                        <mxPoint x="970.5" y="1038.666666666667" as="targetPoint"/>
                    </mxGeometry>
                </mxCell>
                <mxCell id="561" value="" style="rounded=0;whiteSpace=wrap;html=1;" parent="1" vertex="1">
                    <mxGeometry x="1071" y="999" width="20" height="40" as="geometry"/>
                </mxCell>
                <mxCell id="562" value="UpdatePass(newPassHash)" style="text;html=1;strokeColor=none;fillColor=none;align=center;verticalAlign=middle;whiteSpace=wrap;rounded=0;" parent="1" vertex="1">
                    <mxGeometry x="1018.5" y="970" width="60" height="30" as="geometry"/>
                </mxCell>
                <mxCell id="563" style="edgeStyle=none;html=1;exitX=0;exitY=1;exitDx=0;exitDy=0;entryX=1;entryY=0;entryDx=0;entryDy=0;dashed=1;" parent="1" source="564" edge="1">
                    <mxGeometry relative="1" as="geometry">
                        <mxPoint x="850.5" y="1079" as="targetPoint"/>
                    </mxGeometry>
                </mxCell>
                <mxCell id="564" value="" style="rounded=0;whiteSpace=wrap;html=1;" parent="1" vertex="1">
                    <mxGeometry x="950.5" y="1039" width="20" height="40" as="geometry"/>
                </mxCell>
                <mxCell id="565" value="error" style="text;html=1;strokeColor=none;fillColor=none;align=center;verticalAlign=middle;whiteSpace=wrap;rounded=0;" parent="1" vertex="1">
                    <mxGeometry x="989.5" y="1016" width="60" height="30" as="geometry"/>
                </mxCell>
                <mxCell id="566" value="error" style="text;html=1;strokeColor=none;fillColor=none;align=center;verticalAlign=middle;whiteSpace=wrap;rounded=0;" parent="1" vertex="1">
                    <mxGeometry x="869" y="1055" width="60" height="30" as="geometry"/>
                </mxCell>
                <mxCell id="570" value="" style="endArrow=none;dashed=1;html=1;rounded=0;entryX=0.5;entryY=1;entryDx=0;entryDy=0;dashPattern=8 8;startArrow=none;" parent="1" target="569" edge="1">
                    <mxGeometry width="50" height="50" relative="1" as="geometry">
                        <mxPoint x="839" y="1360" as="sourcePoint"/>
                        <mxPoint x="839.5" y="959" as="targetPoint"/>
                    </mxGeometry>
                </mxCell>
                <mxCell id="569" value="" style="rounded=0;whiteSpace=wrap;html=1;" parent="1" vertex="1">
                    <mxGeometry x="829.5" y="1079" width="20" height="40" as="geometry"/>
                </mxCell>
                <mxCell id="571" value="error" style="text;html=1;strokeColor=none;fillColor=none;align=center;verticalAlign=middle;whiteSpace=wrap;rounded=0;" parent="1" vertex="1">
                    <mxGeometry x="153" y="1254" width="60" height="30" as="geometry"/>
                </mxCell>
                <mxCell id="573" value="error" style="text;html=1;strokeColor=none;fillColor=none;align=center;verticalAlign=middle;whiteSpace=wrap;rounded=0;" parent="1" vertex="1">
                    <mxGeometry x="20" y="1294" width="60" height="30" as="geometry"/>
                </mxCell>
            </root>
        </mxGraphModel>
    </diagram>
</mxfile>